<?xml version="1.0" encoding="utf-8"?>
<!-- Generator: Adobe Illustrator 21.0.2, SVG Export Plug-In . SVG Version: 6.00 Build 0)  -->
<svg version="1.1" id="Layer_1" xmlns="http://www.w3.org/2000/svg" xmlns:xlink="http://www.w3.org/1999/xlink" x="0px" y="0px"
	 viewBox="0 0 301 71" style="enable-background:new 0 0 301 71;" xml:space="preserve">
<style type="text/css">
	.st0{fill:#25348F;}
	.st1{fill:#007EFD;}
	.st2{clip-path:url(#SVGID_3_);}
	.st3{clip-path:url(#SVGID_4_);fill:#25348F;}
	.st4{clip-path:url(#SVGID_7_);}
	.st5{clip-path:url(#SVGID_8_);fill:#007EFD;}
</style>
<g>
	<path class="st0" d="M109,39.2c0-2.4-0.5-4.5-1.4-6.3c-1-1.8-2.4-3.1-4.2-4.1c-1.9-0.9-4.1-1.4-6.7-1.4h-7.5V51h7.5
		c2.6,0,4.8-0.5,6.7-1.5c1.9-1,3.3-2.3,4.2-4.1C108.5,43.7,109,41.6,109,39.2L109,39.2L109,39.2z M96.4,48.2h-4.2V30.1h4.2
		c3.1,0,5.4,0.8,7.1,2.4c1.6,1.6,2.4,3.8,2.4,6.7c0,2.9-0.8,5.1-2.4,6.7C101.8,47.5,99.5,48.2,96.4,48.2L96.4,48.2L96.4,48.2z
		 M112.5,27.3c0,0.6,0.2,1,0.6,1.4c0.4,0.3,0.9,0.5,1.5,0.5c0.6,0,1.1-0.2,1.5-0.5c0.4-0.3,0.6-0.8,0.6-1.4c0-0.6-0.2-1-0.6-1.4
		c-0.4-0.3-0.9-0.5-1.5-0.5c-0.6,0-1.1,0.2-1.5,0.5C112.7,26.3,112.5,26.8,112.5,27.3L112.5,27.3L112.5,27.3z M113.1,32.7V51h3V32.7
		H113.1L113.1,32.7z M128.5,32.4c-1.6,0-3.1,0.4-4.3,1.1c-1.3,0.8-2.3,1.8-3,3.3c-0.7,1.4-1.1,3.1-1.1,5c0,1.9,0.4,3.6,1.1,5
		c0.7,1.4,1.7,2.5,3,3.3c1.3,0.8,2.7,1.1,4.3,1.1c1.8,0,3.3-0.4,4.5-1.3c1.2-0.9,2.1-2.1,2.6-3.6V51h3V32.7h-3v4.7
		c-0.5-1.5-1.4-2.7-2.6-3.6C131.8,32.9,130.2,32.4,128.5,32.4L128.5,32.4L128.5,32.4z M129.3,35.1c1.2,0,2.3,0.3,3.2,0.8
		c0.9,0.5,1.7,1.3,2.2,2.4c0.5,1,0.8,2.2,0.8,3.5c0,1.3-0.3,2.5-0.8,3.5c-0.5,1-1.3,1.8-2.2,2.4c-0.9,0.6-2,0.8-3.2,0.8
		c-1.9,0-3.4-0.6-4.5-1.8c-1.1-1.2-1.7-2.8-1.7-4.9c0-2.1,0.6-3.7,1.7-4.9C126,35.7,127.5,35.1,129.3,35.1L129.3,35.1L129.3,35.1z
		 M149.2,32.4c-2,0-3.5,0.5-4.6,1.4c-1.1,0.9-1.7,2.2-1.7,3.7c0,1.2,0.3,2.1,0.9,2.8c0.6,0.7,1.3,1.2,2.1,1.5
		c0.8,0.3,1.9,0.6,3.3,0.9c1.1,0.2,1.9,0.5,2.6,0.7c0.6,0.2,1.1,0.5,1.6,1c0.4,0.4,0.6,1,0.6,1.7c0,0.9-0.3,1.6-0.9,2.1
		c-0.6,0.5-1.4,0.8-2.5,0.8c-1.4,0-2.5-0.3-3.4-1c-0.9-0.7-1.3-1.6-1.5-2.7h-2.9c0.2,1.9,1.1,3.3,2.4,4.4c1.4,1,3.2,1.6,5.3,1.6
		c1.9,0,3.4-0.5,4.5-1.4c1.1-0.9,1.7-2.1,1.7-3.6c0-1.2-0.3-2.2-0.9-2.9c-0.6-0.7-1.3-1.2-2.1-1.6c-0.8-0.3-1.9-0.6-3.3-1
		c-1.1-0.2-1.9-0.5-2.5-0.7c-0.6-0.2-1.1-0.5-1.5-0.9c-0.4-0.4-0.6-1-0.6-1.6c0-0.9,0.3-1.6,0.9-2.1c0.6-0.5,1.5-0.8,2.6-0.8
		c1.3,0,2.3,0.4,3.1,1.1c0.8,0.7,1.2,1.6,1.4,2.7h2.9c-0.3-1.8-1-3.3-2.3-4.4C152.9,33,151.2,32.4,149.2,32.4L149.2,32.4L149.2,32.4
		z M170.8,32.4c-1.8,0-3.3,0.5-4.5,1.4c-1.2,0.9-2.1,2.1-2.6,3.6v-4.7h-3v27h3V46.3c0.5,1.5,1.3,2.7,2.6,3.6
		c1.2,0.9,2.7,1.4,4.5,1.4c1.6,0,3.1-0.4,4.3-1.1c1.3-0.8,2.3-1.8,3-3.3c0.7-1.4,1.1-3.1,1.1-5c0-1.9-0.4-3.6-1.1-5
		c-0.7-1.4-1.7-2.5-3-3.3C173.8,32.8,172.4,32.4,170.8,32.4L170.8,32.4L170.8,32.4z M169.9,35.1c1.9,0,3.4,0.6,4.5,1.8
		c1.1,1.2,1.7,2.8,1.7,4.9c0,2.1-0.6,3.7-1.7,4.9c-1.1,1.2-2.6,1.8-4.5,1.8c-1.2,0-2.2-0.3-3.2-0.8c-1-0.6-1.7-1.3-2.2-2.4
		c-0.5-1-0.8-2.2-0.8-3.5c0-1.3,0.3-2.5,0.8-3.5c0.5-1,1.3-1.8,2.2-2.4C167.7,35.4,168.7,35.1,169.9,35.1L169.9,35.1L169.9,35.1z
		 M191.4,32.4c-1.8,0-3.3,0.4-4.7,1.1c-1.4,0.8-2.5,1.8-3.3,3.3c-0.8,1.4-1.2,3.1-1.2,5c0,1.9,0.4,3.6,1.2,5
		c0.8,1.4,1.9,2.5,3.3,3.3c1.4,0.8,3,1.1,4.7,1.1c1.8,0,3.3-0.4,4.7-1.1c1.4-0.8,2.5-1.8,3.3-3.3c0.8-1.4,1.2-3.1,1.2-5
		c0-1.9-0.4-3.6-1.2-5c-0.8-1.4-1.9-2.5-3.3-3.3C194.8,32.8,193.2,32.4,191.4,32.4L191.4,32.4L191.4,32.4z M191.4,35.1
		c1.1,0,2.1,0.2,3,0.7c0.9,0.5,1.7,1.2,2.2,2.3c0.6,1,0.9,2.3,0.9,3.8c0,1.5-0.3,2.7-0.9,3.7c-0.6,1-1.3,1.8-2.2,2.3
		c-0.9,0.5-1.9,0.7-3,0.7c-1.1,0-2.1-0.2-3-0.7c-0.9-0.5-1.7-1.2-2.2-2.3c-0.6-1-0.9-2.3-0.9-3.7c0-1.5,0.3-2.7,0.9-3.8
		c0.6-1,1.3-1.8,2.2-2.3C189.3,35.4,190.3,35.1,191.4,35.1L191.4,35.1L191.4,35.1z"/>
	<path class="st1" d="M214.9,27.2c-2.3,0-4.3,0.5-6,1.5c-1.7,1-3,2.4-4,4.3c-0.9,1.8-1.4,3.9-1.4,6.2c0,2.3,0.5,4.4,1.4,6.2
		c0.9,1.8,2.3,3.2,4,4.3c1.7,1,3.7,1.5,6,1.5c2.9,0,5.4-0.8,7.3-2.3c1.9-1.5,3.2-3.6,3.8-6.2h-4.9c-0.5,1.3-1.3,2.3-2.4,3
		c-1.1,0.7-2.4,1.1-3.9,1.1c-1.2,0-2.4-0.3-3.4-0.9c-1-0.6-1.8-1.5-2.3-2.7c-0.6-1.2-0.8-2.5-0.8-4c0-1.6,0.3-2.9,0.8-4.1
		c0.6-1.2,1.3-2,2.3-2.7c1-0.6,2.1-0.9,3.4-0.9c1.5,0,2.8,0.4,3.9,1.1c1.1,0.7,1.9,1.7,2.4,3h4.9c-0.6-2.6-1.9-4.7-3.8-6.2
		C220.3,28,217.8,27.2,214.9,27.2L214.9,27.2L214.9,27.2z M236.8,32.3c-1.6,0-3,0.4-4.2,1.1c-1.2,0.8-2.2,1.9-2.9,3.3
		c-0.7,1.4-1.1,3.1-1.1,5.1c0,1.9,0.4,3.6,1.1,5.1c0.7,1.4,1.7,2.5,2.9,3.3c1.2,0.8,2.6,1.1,4.2,1.1c1.6,0,2.9-0.4,4-1.1
		c1.1-0.7,1.9-1.7,2.4-3V51h4.7V32.5h-4.7v3.8c-0.5-1.2-1.3-2.2-2.4-3C239.7,32.6,238.4,32.3,236.8,32.3L236.8,32.3L236.8,32.3z
		 M238.3,36.4c1.4,0,2.6,0.5,3.5,1.5c0.9,1,1.4,2.3,1.4,3.9c0,1.6-0.5,2.9-1.4,3.9c-0.9,1-2.1,1.5-3.5,1.5c-1.5,0-2.6-0.5-3.5-1.4
		c-0.9-0.9-1.3-2.3-1.3-3.9c0-1.7,0.4-3,1.3-3.9C235.6,36.9,236.8,36.4,238.3,36.4L238.3,36.4L238.3,36.4z M256.8,36v-3.5h-4.7V51
		h4.7v-8.9c0-3.2,1.7-4.8,5.2-4.8h1.4v-5c-1.4,0-2.7,0.3-3.8,1C258.4,33.9,257.5,34.9,256.8,36L256.8,36L256.8,36z M283.3,41
		c0-1.7-0.4-3.2-1.1-4.5c-0.7-1.3-1.8-2.4-3.2-3.1c-1.4-0.8-3-1.1-4.8-1.1c-1.8,0-3.4,0.4-4.8,1.1c-1.4,0.8-2.5,1.9-3.3,3.3
		c-0.8,1.4-1.2,3.1-1.2,5.1c0,1.9,0.4,3.6,1.2,5c0.8,1.4,1.9,2.5,3.3,3.3c1.4,0.8,3,1.2,4.8,1.2c1.5,0,2.9-0.3,4.2-0.9
		c1.3-0.6,2.3-1.4,3.1-2.4c0.8-1,1.3-2.2,1.6-3.5h-5c-0.2,0.9-0.7,1.6-1.4,2.2c-0.7,0.5-1.6,0.8-2.7,0.8c-1.2,0-2.2-0.4-3.1-1.2
		c-0.8-0.8-1.3-2-1.3-3.6h13.5C283.3,42,283.3,41.5,283.3,41L283.3,41L283.3,41z M278.6,40.6h-9c0.1-1.5,0.6-2.7,1.4-3.4
		c0.9-0.8,1.9-1.2,3.2-1.2c1.2,0,2.3,0.4,3.2,1.2C278.3,37.9,278.6,39.1,278.6,40.6L278.6,40.6L278.6,40.6z"/>
	<g>
		<defs>
			<rect id="SVGID_1_" x="17.2" y="10.5" width="266.7" height="50"/>
		</defs>
		<defs>
			<path id="SVGID_2_" d="M41.9,30.3V10.5h7.6v33.7c0,9-7.2,16.3-16.2,16.3c-8.9,0-16.2-7.3-16.2-16.3c0-9,7.2-16.3,16.2-16.3
				C36.5,27.8,39.4,28.7,41.9,30.3L41.9,30.3z M33.3,52.8c4.7,0,8.6-3.9,8.6-8.7c0-4.8-3.8-8.7-8.6-8.7c-4.7,0-8.6,3.9-8.6,8.7
				C24.8,48.9,28.6,52.8,33.3,52.8L33.3,52.8z"/>
		</defs>
		<clipPath id="SVGID_3_">
			<use xlink:href="#SVGID_1_"  style="overflow:visible;"/>
		</clipPath>
		<clipPath id="SVGID_4_" class="st2">
			<use xlink:href="#SVGID_2_"  style="overflow:visible;"/>
		</clipPath>
		<rect x="11.2" y="4.5" class="st3" width="44.3" height="61.9"/>
	</g>
	<g>
		<defs>
			<rect id="SVGID_5_" x="17.2" y="10.5" width="266.7" height="50"/>
		</defs>
		<defs>
			<path id="SVGID_6_" d="M73.6,39.3h-8.4c-1.5-2.3-4.2-3.8-7.1-3.8c-4.7,0-8.6,3.9-8.6,8.7c0,4.8,3.8,8.7,8.6,8.7
				c3,0,5.6-1.5,7.1-3.8h8.4c-2,6.7-8.2,11.5-15.5,11.5c-8.9,0-16.2-7.3-16.2-16.3c0-9,7.2-16.3,16.2-16.3
				C65.4,27.8,71.6,32.7,73.6,39.3L73.6,39.3z"/>
		</defs>
		<clipPath id="SVGID_7_">
			<use xlink:href="#SVGID_5_"  style="overflow:visible;"/>
		</clipPath>
		<clipPath id="SVGID_8_" class="st4">
			<use xlink:href="#SVGID_6_"  style="overflow:visible;"/>
		</clipPath>
		<rect x="36" y="21.9" class="st5" width="43.6" height="44.6"/>
	</g>
</g>
</svg>
