<svg class="svg-icon" style="width: 1em;height: 1em;vertical-align: middle;fill: currentColor;overflow: hidden;" viewBox="0 0 1024 1024" version="1.1" xmlns="http://www.w3.org/2000/svg"><path d="M748.48 302.464c0-140.8-108.8-256-249.6-262.4-140.8 0-256 108.8-262.4 249.6 0 89.6 44.8 179.2 121.6 224-166.4 57.6-281.6 217.6-275.2 396.8v32h320c19.2 0 38.4-12.8 38.4-32s-12.8-38.4-32-38.4h-256c12.8-179.2 166.4-320 345.6-320 44.8 0 89.6 6.4 134.4 25.6 19.2 6.4 38.4 0 44.8-19.2 6.4-12.8 0-32-19.2-38.4h-6.4c-6.4 0-19.2-6.4-25.6-6.4 76.8-38.4 128-121.6 121.6-211.2z m-256 185.6c-108.8 0-192-89.6-192-192 0-108.8 89.6-192 192-192s192 89.6 192 192-83.2 192-192 192z" fill="#323333" /><path d="M940.48 750.464c-6.4-19.2-19.2-32-32-32s-25.6-12.8-25.6-25.6v-12.8c6.4-19.2 0-38.4-12.8-51.2l-51.2-25.6c-12.8-6.4-32 0-38.4 6.4-6.4 6.4-12.8 12.8-19.2 12.8-6.4 0-12.8-6.4-19.2-12.8-19.2 0-32-6.4-51.2 0l-51.2 25.6c-19.2 12.8-25.6 25.6-19.2 51.2v12.8c0 12.8-12.8 25.6-25.6 25.6s-25.6 12.8-32 25.6c-6.4 12.8-6.4 25.6-6.4 32 0 12.8 0 25.6 6.4 32 6.4 19.2 19.2 32 38.4 32 12.8 0 25.6 12.8 25.6 25.6v12.8c-6.4 19.2 0 38.4 12.8 51.2l38.4 25.6c19.2 6.4 32 0 51.2-6.4 6.4-12.8 19.2-19.2 32-12.8 6.4 0 12.8 6.4 12.8 12.8 6.4 6.4 19.2 12.8 25.6 12.8h12.8l51.2-25.6c12.8-12.8 19.2-32 12.8-51.2v-6.4c0-12.8 12.8-25.6 25.6-25.6s25.6-12.8 32-25.6c6.4-12.8 6.4-25.6 6.4-32v-51.2z m-51.2 44.8c-19.2 6.4-32 12.8-51.2 25.6-12.8 12.8-19.2 32-19.2 57.6v19.2l-19.2 12.8-6.4-6.4c-25.6-25.6-70.4-25.6-96 0l-6.4 6.4-19.2-6.4v-19.2c0-19.2-6.4-38.4-19.2-57.6-12.8-12.8-32-25.6-51.2-25.6v-25.6c19.2-6.4 32-12.8 51.2-25.6 12.8-12.8 19.2-32 19.2-57.6v-19.2l19.2-12.8 6.4 6.4c25.6 25.6 70.4 25.6 96 0l6.4-12.8 19.2 12.8v19.2c0 19.2 6.4 38.4 19.2 57.6 12.8 12.8 32 25.6 51.2 25.6v25.6z" fill="#323333" /><path d="M742.08 705.664c-44.8 0-76.8 32-76.8 76.8s32 76.8 76.8 76.8 76.8-32 76.8-76.8-32-76.8-76.8-76.8z m0 102.4c-12.8 0-25.6-12.8-25.6-25.6s12.8-25.6 25.6-25.6 25.6 12.8 25.6 25.6c6.4 12.8-6.4 25.6-25.6 25.6z" fill="#323333" /></svg>